<svg width="409" height="409" viewBox="0 0 409 409" fill="none" xmlns="http://www.w3.org/2000/svg">
<rect x="12.5" y="12.5" width="384" height="384" rx="80.5" stroke="white" stroke-width="25"/>
<path d="M90 200.75C90.5999 198.317 90.6184 194.889 90.9458 192.313C91.6019 187.326 92.5626 182.383 93.8227 177.512C94.0106 176.786 94.236 176.075 94.4458 175.356C104.134 142.14 128.401 115.043 160.449 101.632C177.935 94.4742 196.913 91.7033 215.721 93.5613C227.013 94.6113 238 97.2745 248.479 101.632C265.866 108.915 281.206 120.331 293.161 134.885C298.543 141.427 303.339 148.863 307.152 156.427C311.897 165.928 315.261 176.055 317.14 186.503C317.684 189.699 318.098 192.166 318.353 195.407C318.435 196.473 318.792 200.869 319 201.741V211.905C318.646 213.279 318.583 216.664 318.452 218.255C314.978 260.809 284.964 299.737 244.789 314.275C242.273 315.185 239.838 316.467 237.074 315.828C232.011 314.658 232.945 308.533 232.945 304.483L232.954 287.74C232.956 279.057 233.71 269.542 228.821 261.952C227.86 260.46 226.547 258.834 225.163 257.716C230.366 257.16 237.1 256.072 242.153 254.541C250.924 251.883 260.944 246.433 266.716 239.107C275.738 227.657 278.414 210.26 277.234 196.06C276.434 186.419 272.196 177.861 265.774 170.742C266.359 168.964 266.948 167.278 267.374 165.436C269.281 157.187 267.776 148.544 264.715 140.771C264.378 139.914 262.168 140.062 261.407 140.073C256.004 140.152 251.01 142.563 246.136 144.655C243.63 145.731 240.995 147.33 238.573 148.657C236.714 149.675 234.886 151.139 232.974 152.106C230.47 151.271 225.659 150.318 223.029 149.869C207.371 147.174 191.311 147.936 175.979 152.102C174.425 151.227 172.882 150.099 171.384 149.259C164.203 145.231 152.657 138.924 144.333 140.338C140.783 148.487 139.484 159.234 142.257 167.769C142.417 168.263 143.12 170.146 143.002 170.591C142.83 171.231 140.168 174.34 139.734 174.926C138.779 176.201 137.912 177.538 137.138 178.93C134.741 183.153 133.085 187.755 132.241 192.535C130.275 203.435 132.064 218.025 136.171 228.267C141.088 240.525 148.742 247.235 160.726 252.379C168.416 255.68 175.401 256.612 183.604 257.726C180.505 260.728 178.303 264.53 177.244 268.709C176.903 270.028 176.655 271.828 176.252 273.04C172.648 274.723 169.109 275.643 165.166 275.888C162.413 276.059 159.891 276.175 157.285 275.524C148.828 273.41 145.195 266.677 140.627 260.139C139.436 258.434 136.769 256.457 135.01 255.326C132.52 253.762 130.17 252.483 127.146 252.063C125.597 251.849 121.689 251.513 120.535 253.144C120.14 253.704 120.653 254.545 120.986 255.101C122.426 257.499 124.922 258.759 127.14 260.299C130.944 263.177 133.865 267.964 135.986 272.187C136.897 274.001 137.496 275.872 138.373 277.691C139.952 281.081 142.541 283.75 145.675 285.75C147.882 287.177 150.323 288.204 152.886 288.788C160.233 290.443 168.606 290.392 175.984 288.992L176.117 304.477C176.128 306.133 176.272 310.079 176.015 311.482C175.802 312.628 175.242 313.679 174.411 314.495C171.134 317.703 165.881 314.919 162.355 313.582C146.702 307.544 132.637 298.019 121.233 285.731C104.255 267.356 93.1261 245.014 90.7225 219.96C90.5824 218.501 90.3504 213.916 90 212.8V200.75Z" fill="white"/>
</svg>
