<svg width="409" height="409" viewBox="0 0 409 409" fill="none" xmlns="http://www.w3.org/2000/svg">
<rect x="12.5" y="12.5" width="384" height="384" rx="80.5" stroke="white" stroke-width="25"/>
<path d="M216.296 190.028C221.32 182.41 226.906 176.732 235.355 172.906C246.504 167.826 261.082 167.934 272.317 172.034C290.503 178.672 299.813 194.93 302.038 213.273C302.179 214.435 302.356 218.523 302.813 219.372V298.999H260.6C260.402 293.163 260.553 286.456 260.553 280.582L260.561 246.629C260.571 230.304 263.752 203.226 240.37 202.634C233.383 202.458 228.675 203.949 223.632 208.963C215.717 216.833 216.164 223.772 216.162 234.266L216.16 247.865L216.157 298.999H173.943C173.762 290.795 174.288 283.31 174.299 275.238L174.306 208.696L174.309 188.055C174.309 182.456 174.49 177.645 173.828 172.065C177.763 171.725 185.235 171.941 189.381 171.94C198.306 171.909 207.231 171.926 216.155 171.992C216.166 177.239 215.946 184.921 216.296 190.028Z" fill="white"/>
<path d="M108.536 172.046C111.922 171.738 117.994 171.985 121.556 171.945C130.896 171.841 140.351 172.074 149.694 171.925C149.334 173.029 149.627 178.634 149.628 180.244L149.567 194.724L149.566 263.853L149.566 286.385C149.566 289.99 149.707 294.898 149.505 298.432C146.196 298.393 109.121 298.529 109.153 298.509C109.641 298.766 117.715 298.592 119.001 298.595L142.519 298.603C143.588 298.604 149.996 298.746 150.546 298.562L150.605 299.001H108.577C108.241 285.86 108.544 271.576 108.545 258.309L108.536 172.046Z" fill="white"/>
<path d="M125.704 111H134.039C141.201 112.694 146.31 114.887 150.394 121.413C153.388 126.198 154.206 133.304 152.893 138.665C148.2 157.818 118.74 160.637 108.983 144.302C107.263 141.424 107.109 139.311 106 136.475V129.027C107.253 126.261 107.053 124.518 109.249 121.148C113.569 114.519 118.361 112.702 125.704 111Z" fill="white"/>
</svg>
