<svg width="264" height="264" viewBox="0 0 264 264" fill="none" xmlns="http://www.w3.org/2000/svg">
<path d="M0 0H264V264H0V0Z" fill="white"/>
<path d="M136.016 56.0128L144.004 55.9995C144.004 58.5605 143.941 61.47 144.007 64.0058L151.998 63.997C152.002 74.5785 151.896 85.4263 152.022 95.9883L159.995 95.9793C159.998 85.4413 159.869 74.5225 160.017 64.013L167.997 63.9968C168.001 74.555 167.881 85.4588 168.024 95.9918L184.007 96.0025C184.007 98.5658 183.944 101.469 184.01 104.007L199.995 103.981L200.016 96.0138L223.998 95.9993L224.021 111.989L231.997 111.998L232.018 135.989L223.998 136L224.019 143.991L231.997 143.997L232.018 159.988L224.014 160.003L223.993 152.017L215.999 152.005L216.018 167.988L208.014 168.002L207.993 160.017L199.998 160.005L200.012 199.993L184.008 200.012L184.015 207.985L176.015 208.002L175.997 200.024L151.998 200.002L152.023 215.988L175.999 216L176.018 231.996L160.011 231.999L159.997 224.024C157.347 224.019 154.65 223.987 152.005 224.02L152.018 231.994L128.015 232.001L128.006 224.007L112.002 224L111.992 208.016L104.016 208.003L104.021 184.01L111.996 183.974L111.993 168.018L104 168.001L104.01 160.006L88 159.998L88.0063 152.006C87.9308 149.508 88 146.536 88.0013 144.006L87.9898 136.016L80.0165 136.004C79.985 133.356 80.014 130.663 80.0168 128.011L95.9985 128.003L95.9918 120.02L80.0163 120C79.9863 117.349 80.0145 114.662 80.0198 112.007L87.9968 111.974L88.007 104.007L95.9978 104.003L96.0173 80.0138L104 79.9995L104.025 87.9888L111.995 87.9778L112.006 72.007L128.001 71.9785L128.014 64.015L136 64.0023L136.016 56.0128Z" fill="black"/>
<path d="M120.004 144.007C127.917 144.001 136.113 143.882 144.001 144.005C144 146.545 143.932 149.497 144.005 152.007L143.995 159.974L136.018 160.009L135.995 167.97L128.011 168.005L127.999 176.004C127.998 178.539 127.931 181.501 128.005 184.005L135.999 183.997L136.022 191.992L143.999 192.007L144.017 199.987L151.998 200.002L152.023 215.988L175.999 216L176.018 231.996L160.011 231.999L159.997 224.024C157.347 224.019 154.65 223.987 152.005 224.02L152.018 231.994L128.015 232.001L128.005 224.007L112.001 224L111.991 208.016L104.015 208.003L104.021 184.01L111.995 183.974L111.992 168.018L104 168.001L104.009 160.006L111.996 159.975L112.018 152.009L119.995 151.97L120.004 144.007Z" fill="black"/>
<path d="M120.002 184.013L128.006 184.005L128.015 200.005L135.988 200.015L135.995 207.981L127.784 207.994L120.024 207.99L120.002 184.013Z" fill="white"/>
<path d="M128.004 152.016L144.005 152.007L143.995 159.974L136.018 160.009L135.995 167.971L128.011 168.006C127.826 163.253 128.001 156.878 128.004 152.016Z" fill="white"/>
<path d="M128.008 216.016L143.995 216.018L143.994 223.974L128.006 224.007C127.992 221.344 127.993 218.68 128.008 216.016Z" fill="white"/>
<path d="M120.002 168.014L128.011 168.005L127.999 176.004L120.02 175.989L120.002 168.014Z" fill="white"/>
<path d="M120.001 104.002L128.008 104.003L128.016 112.003L135.992 112.015L136.016 120.003L143.991 120.016L144.017 128.003L151.988 128.015L151.996 135.976L144.018 136.007L144.002 144.005C136.113 143.882 127.917 144.001 120.004 144.007L119.996 151.97L112.018 152.009L111.996 159.975L104.01 160.006L88 159.998L88.0063 152.006C87.9308 149.508 88 146.536 88.0013 144.006L87.9898 136.016L80.0165 136.004C79.985 133.356 80.014 130.663 80.0168 128.011L95.9985 128.003L95.9918 120.02L80.0163 120C79.9863 117.349 80.0145 114.662 80.0198 112.007L87.9968 111.974L88.007 104.007L95.9978 104.003L112.006 104.006L120.001 104.002Z" fill="white"/>
<path d="M95.9985 128.003L104.006 128.004L104.019 136.005L112.005 136.006L112.02 144.004L120.004 144.007L119.996 151.97L112.018 152.01L111.996 159.975L104.01 160.006L88 159.999L88.0063 152.007C87.9308 149.508 88 146.536 88.0013 144.006L87.9898 136.016L80.0165 136.004C79.985 133.356 80.014 130.663 80.0168 128.011L95.9985 128.003Z" fill="white"/>
<path d="M88.0009 144.006L96.0074 144.005L103.996 143.996C103.996 148.888 103.827 155.217 104.009 160.006L87.9997 159.998L88.0059 152.006C87.9304 149.508 87.9997 146.536 88.0009 144.006Z" fill="black"/>
<path d="M88.0009 144.006L96.0074 144.005L95.9964 151.97L88.0059 152.006C87.9304 149.508 87.9997 146.536 88.0009 144.006Z" fill="white"/>
<path d="M80.0168 128.011L95.9985 128.003C95.999 133.117 95.8713 138.946 96.0078 144.005L88.0013 144.006L87.9898 136.016L80.0165 136.004C79.985 133.356 80.014 130.663 80.0168 128.011Z" fill="black"/>
<path d="M88.0083 104.007L95.999 104.003L96.019 111.991L103.998 111.997C103.998 117.118 103.871 122.935 104.007 128.004L95.9998 128.003L95.993 120.021L80.0175 120C79.9875 117.349 80.0158 114.662 80.021 112.007L87.998 111.974L88.0083 104.007Z" fill="black"/>
<path d="M120.019 128.014L136.003 127.998L136.006 135.993L120 136.004L120.019 128.014Z" fill="black"/>
<path d="M112.006 104.006L120.001 104.002L120.013 111.988L112.018 112.001L112.006 104.006Z" fill="black"/>
<path d="M112.006 136.006L120.001 136.003C120.001 138.558 119.936 141.479 120.004 144.007L112.02 144.003L112.006 136.006Z" fill="black"/>
<path d="M104.006 128.004L112.004 128.001C112.004 130.556 111.938 133.477 112.006 136.006L104.019 136.004L104.006 128.004Z" fill="black"/>
<path d="M208 112.019L215.997 112.019L216.015 120.004L223.992 120.015L223.999 136L224.02 143.991L231.998 143.997L232.02 159.988L224.015 160.003L223.994 152.017L216 152.005L208.024 151.99L208.003 144L192.024 143.991L192.002 135.998L184.005 136.005C183.935 133.485 184.001 130.553 184.001 128.005L192.019 127.988L192.005 120.017L199.997 120.018L200.015 128.001L208.019 127.989L208 112.019Z" fill="white"/>
<path d="M216.017 136.014L223.999 136L224.02 143.991L231.997 143.997L232.019 159.988L224.015 160.003L223.994 152.017L216 152.005L216.017 136.014Z" fill="black"/>
<path d="M160.002 104.017L167.994 104.021L168.015 128.004L176.005 128.006L175.999 136.004C170.768 135.92 165.272 135.994 160.023 135.991L160.002 104.017Z" fill="white"/>
<path d="M136.003 80.0161L143.996 80.0184L143.996 95.9766L136.02 96.0101L135.996 103.974L128.009 104.004C127.867 98.9671 128 93.0994 127.999 88.0039L136.016 87.9874L136.003 80.0161Z" fill="white"/>
<path d="M127.999 176.004L144.005 176.005L143.999 192.007L136.022 191.992L135.999 183.997L128.006 184.005C127.931 181.501 127.999 178.539 127.999 176.004Z" fill="white"/>
<path d="M144.006 168.019L159.994 168.019L160 176L159.996 183.976L152.024 183.989L152 175.998L144.005 176.005C143.99 173.343 143.99 170.681 144.006 168.019Z" fill="white"/>
<path d="M151.998 152.003L167.993 152.022L167.995 159.982L152.022 159.989L151.998 152.003Z" fill="white"/>
<path d="M136.017 56.0128L144.005 55.9995C144.004 58.5605 143.941 61.47 144.008 64.0058L143.999 71.975L136.023 71.988L136 64.0023L136.017 56.0128Z" fill="white"/>
<path d="M136.017 56.0128L144.005 55.9995C144.004 58.5605 143.941 61.47 144.008 64.0058L136 64.0023L136.017 56.0128Z" fill="black"/>
<path d="M144.003 144.005L151.993 144.019L151.999 152.003L144.006 152.007C143.934 149.497 144.001 146.545 144.003 144.005Z" fill="white"/>
<path d="M112.002 96.0212L119.993 96.021L120.001 104.002L112.005 104.006C111.989 101.345 111.988 98.683 112.002 96.0212Z" fill="white"/>
<path d="M176.006 128.006L184.001 128.005C184.001 130.553 183.935 133.485 184.005 136.005L176 136.004L176.006 128.006Z" fill="black"/>
<path d="M176.002 120.02L183.994 120.019L184 128.005L176.006 128.006L176.002 120.02Z" fill="white"/>
<path d="M176 136.004L184.005 136.005L184 143.977L176.022 143.988L176 136.004Z" fill="white"/>
<path d="M144 192.007L151.992 192.017L151.999 200.002L144.018 199.987L144 192.007Z" fill="white"/>
<path d="M192.002 152.015L199.995 152.02L200 160.005L192.024 159.99L192.002 152.015Z" fill="white"/>
<path d="M176.005 104.016L184.01 104.007L183.996 111.977L176.021 111.989C175.989 109.343 176.008 106.665 176.005 104.016Z" fill="white"/>
<path d="M120.005 80.0186L127.993 80.0198L127.998 88.0038L120.023 87.9906C120.014 85.3478 119.976 82.6568 120.005 80.0186Z" fill="white"/>
<path d="M168.006 168.014L191.995 168.021L191.996 191.978L168.024 191.99L168.006 168.014Z" fill="white"/>
<path d="M176.014 176.012L184.003 175.998L184.009 183.985L176.016 184.002L176.014 176.012Z" fill="black"/>
<path d="M176.005 152.019L183.995 152.023L183.994 159.978L176.025 159.988C175.991 157.346 176.009 154.664 176.005 152.019Z" fill="white"/>
<path d="M32.0117 176.014L87.9995 175.999L88.0187 231.996L32.0147 232L32.0117 176.014Z" fill="black"/>
<path d="M40.0056 184.015L79.9943 184.022L79.9938 223.977L40.0236 223.991C39.8531 210.793 39.9923 197.241 40.0056 184.015Z" fill="white"/>
<path d="M48.0117 192.012L71.9985 192L72.012 215.994C64.0727 216.084 55.967 216 48.014 216.002L48.0117 192.012Z" fill="black"/>
<path d="M176.014 32.014L231.999 32.0015L232.02 87.9945C213.5 88.2067 194.569 88.0035 176.014 88.0007V32.014Z" fill="black"/>
<path d="M184.006 40.0151L223.994 40.0226V79.9781L184.023 79.9911C183.853 66.7924 183.992 53.2421 184.006 40.0151Z" fill="white"/>
<path d="M192.012 48.012L215.998 47.9995L216.012 71.9945L192.014 72.0018L192.012 48.012Z" fill="black"/>
<path d="M32.0137 32.015L87.9992 32.0015L88.0162 87.9935C69.5082 88.2 50.5559 88.002 32.0149 88L32.0137 32.015Z" fill="black"/>
<path d="M40.0063 40.0151L79.9945 40.0219L79.9953 79.9784L40.0238 79.9911C39.8483 66.8011 39.9925 53.2351 40.0063 40.0151Z" fill="white"/>
<path d="M48.0117 48.0115L71.999 47.9995L72.0125 71.994L48.0142 72.0013L48.0117 48.0115Z" fill="black"/>
<path d="M216.016 184.016L223.999 184L224.019 191.99L231.997 191.998L232.019 231.99L224.016 232.002L223.993 208.017L216.003 208.003L215.992 200.017L208.016 200.004C207.984 197.355 208.016 194.662 208.023 192.009L216 191.976L216.016 184.016Z" fill="black"/>
<path d="M144.017 32.014L151.997 31.9985C151.998 37.108 151.868 42.9515 152.007 48.0065L128.014 48.0005C128.009 42.7203 127.934 37.281 128.018 32.0138L136.001 32.0003L136.023 39.9885L143.997 39.977L144.017 32.014Z" fill="black"/>
<path d="M48.019 104.013L72.004 103.999L72.0112 111.993L56.0083 112.015L56.0183 119.986L48.002 120.006C48.005 114.728 47.9463 109.279 48.019 104.013Z" fill="black"/>
<path d="M64.0156 136.011L72.0019 135.998L72.0266 143.991L88.0019 144.006C88.0006 146.536 87.9314 149.508 88.0069 152.006L64.0159 152L64.0156 136.011Z" fill="black"/>
<path d="M32.0098 136.014L39.9968 135.998L40.0128 167.989L32.016 168.002L32.0098 136.014Z" fill="black"/>
<path d="M32.0161 112.014L40.0011 111.999L40.0259 119.991L48.0014 120.006C47.9994 122.542 47.9306 125.5 48.0039 128.006L32.0156 128L32.0161 112.014Z" fill="black"/>
<path d="M96.0156 40.0116L103.998 39.9966C103.994 47.9678 103.923 56.0423 104.006 64.0051L96.0161 64.0041L96.0156 40.0116Z" fill="black"/>
<path d="M200.017 208.014L216.002 208.003L216.014 215.99L200.002 216.003L200.017 208.014Z" fill="black"/>
<path d="M96.021 224.016L112.001 224L112.014 231.993L96.0117 232.002L96.021 224.016Z" fill="black"/>
<path d="M184.02 216.013L200.001 216.002C200.001 218.538 199.931 221.502 200.004 224.006L184.014 224L184.02 216.013Z" fill="black"/>
<path d="M104.006 64.0052L112.005 64.0005L112.007 72.0072L104.02 72.0035L104.006 64.0052Z" fill="black"/>
<path d="M48.0039 128.006L56.0019 127.996L56.0154 135.987L48.0177 136.003L48.0039 128.006Z" fill="black"/>
<path d="M200.004 224.006L208.002 223.998L208.016 231.988L200.017 232.002L200.004 224.006Z" fill="black"/>
<path d="M80.0156 96.0098L88.0046 95.9995L88.0084 104.007L80.0196 104.004L80.0156 96.0098Z" fill="black"/>
<path d="M56.0059 160.006L64.0024 159.998L64.0114 167.987L56.0171 168.003L56.0059 160.006Z" fill="black"/>
<path d="M152.008 48.0063L160.003 47.998L160.014 55.9853L152.019 56.003L152.008 48.0063Z" fill="black"/>
<path d="M224.017 176.015L232.002 175.998L232.014 183.987L223.998 183.999L224.017 176.015Z" fill="black"/>
<path d="M64.0117 120.01L72.0025 119.998L72.013 127.986L64.0177 128.002L64.0117 120.01Z" fill="black"/>
<path d="M112.012 48.0133L120.001 47.9976L120.014 55.9851L112.016 56.0021L112.012 48.0133Z" fill="black"/>
<path d="M32.0117 96.0143L40.0025 96L40.0125 103.986L32.0165 104.002L32.0117 96.0143Z" fill="black"/>
<path d="M80.0182 160.013L87.9999 159.999L88.0117 167.987L80.0137 168.004L80.0182 160.013Z" fill="black"/>
<path d="M160.014 32.0143L168.002 32L168.012 39.9847L160.016 40.0028L160.014 32.0143Z" fill="black"/>
<path d="M96.0176 168.011L104.001 168.001L104.011 175.987L96.0156 176.004L96.0176 168.011Z" fill="black"/>
<path d="M112.014 32.015L120.003 32L120.012 39.9852L112.018 40.002C111.989 37.3607 112.014 34.6607 112.014 32.015Z" fill="black"/>
<path d="M48.0176 152.012L56.0053 152C56.0046 154.554 55.9388 157.48 56.0066 160.007L48.0178 160.005L48.0176 152.012Z" fill="black"/>
</svg>
