<svg width="409" height="409" viewBox="0 0 409 409" fill="none" xmlns="http://www.w3.org/2000/svg">
<rect x="12.5" y="12.5" width="384" height="384" rx="80.5" stroke="white" stroke-width="25"/>
<path fill-rule="evenodd" clip-rule="evenodd" d="M90.5249 191.467C90.4419 193.039 90.3442 194.892 90 195.645V213.394C90.2549 214.027 90.3696 214.888 90.4336 215.793C90.4688 216.287 90.4888 216.795 90.5078 217.287C90.5205 217.607 90.5327 217.92 90.5488 218.218C90.5693 218.606 90.5962 218.97 90.6387 219.289C90.7759 220.32 90.9219 221.346 91.084 222.374C91.9458 227.795 93.1538 233.154 94.6997 238.42C104.309 270.627 127.091 297.234 157.385 311.632C185.922 325.098 218.62 326.665 248.307 315.99C277.453 305.338 301.285 283.673 314.708 255.63C319.274 246.065 322.536 235.929 324.407 225.493C324.792 223.354 325.114 221.177 325.412 219.024C325.489 218.464 325.517 217.776 325.546 217.06V217.048C325.597 215.767 325.652 214.392 326 213.476V195.569C325.515 194.278 325.658 192.36 325.488 190.959C324.698 184.461 323.466 177.706 321.616 171.431C313.855 144.927 297.175 121.938 274.414 106.379C269.64 103.167 264.654 100.285 259.491 97.752C254.308 95.1523 247.855 92.7334 242.296 91.0625C218.562 83.9111 193.197 84.3457 169.721 92.3076C140.247 102.405 115.928 123.744 102.035 151.699C97.2505 161.559 93.792 172.013 91.75 182.785C91.333 184.996 90.9956 187.209 90.6748 189.433C90.6069 189.904 90.5679 190.647 90.5249 191.467ZM186.7 148.044H186.716C191.846 147.995 197.003 147.945 202.107 148.144C216.963 148.834 231.724 150.854 246.207 154.182C259.145 157.19 271.677 161.688 283.544 167.583L284.174 167.9C287.293 169.473 291.68 171.682 293.337 174.547C296.469 179.968 295.179 187.311 289.449 190.534C287.079 191.88 284.289 192.319 281.61 191.768C279.194 191.263 276.175 189.314 273.902 188.105C273.247 187.76 272.589 187.421 271.927 187.09C271.434 186.843 270.938 186.6 270.441 186.36C269.732 186.019 269.019 185.685 268.302 185.359C261.478 182.322 254.42 179.819 247.196 177.873C219.352 170.562 190.313 168.731 161.748 172.487C157.218 173.092 152.452 174.073 147.972 175.036C146.677 175.285 145.292 175.691 143.89 176.102C141.837 176.702 139.749 177.313 137.855 177.459C131.596 177.857 126.031 172.927 126 166.777C125.95 156.784 133.209 155.11 141.376 153.237C150.781 151.079 159.875 149.556 169.503 148.847C170.57 148.769 171.605 148.685 172.625 148.602C173.409 148.538 174.183 148.476 174.956 148.417C177.061 148.257 179.155 148.126 181.39 148.086L183.363 148.074L186.7 148.044ZM238.462 195.147C220.654 189.944 202.162 187.557 183.636 188.067C182.485 188.126 181.145 188.166 179.771 188.207L178.983 188.23C177.067 188.288 175.147 188.355 173.643 188.488C164.666 189.249 155.768 190.774 147.043 193.048L146.341 193.225C139.579 194.929 133.36 196.496 134.053 205.537C134.252 208.131 135.307 209.996 137.21 211.753C140.97 215.053 144.418 214.065 148.294 212.956L148.795 212.812C149.319 212.663 149.852 212.516 150.394 212.379C154.739 211.247 159.131 210.312 163.559 209.578C183.626 206.403 204.105 207.13 223.905 211.72C227.147 212.465 232.73 213.828 235.864 214.987C242.605 217.108 249.169 219.77 255.494 222.947C256.607 223.502 257.709 224.079 258.8 224.678C259.383 224.998 259.963 225.324 260.54 225.656L261.305 226.096C264.968 228.21 268.485 230.238 272.912 228.071C276.333 226.396 278.216 222.689 277.98 218.975C277.859 212.838 274.144 210.779 269.546 208.23L268.627 207.72C259.06 202.415 248.942 198.199 238.462 195.147ZM187.32 227.021C198.141 226.828 211.757 228.019 222.252 230.443C233.438 232.927 244.226 236.96 254.302 242.424L254.666 242.62C257.105 243.935 260.608 245.823 261.973 248.084C263.01 249.804 263.245 252.629 262.753 254.57C262.267 256.435 261.069 258.033 259.418 259.021C255.661 261.25 252.237 259.233 249.013 257.333C248.536 257.052 248.063 256.773 247.594 256.512C245.915 255.591 244.217 254.704 242.503 253.851C236.153 250.734 229.5 248.276 222.651 246.515C197.688 240.139 171.653 241.928 146.754 247.874C145.914 248.074 143.966 247.43 143.161 247.05C137.33 244.289 137.687 234.932 143.86 232.8C146.737 231.854 150.024 231.276 153.158 230.725C153.901 230.594 154.635 230.465 155.354 230.333C165.803 228.411 176.679 227.248 187.32 227.021Z" fill="white"/>
<path fill-rule="evenodd" clip-rule="evenodd" d="M180.223 188.193C179.812 188.206 179.398 188.218 178.983 188.23L179.771 188.207C179.923 188.202 180.072 188.198 180.223 188.193ZM148.597 212.869C149.185 212.701 149.783 212.533 150.394 212.379C149.852 212.516 149.319 212.663 148.795 212.812L148.597 212.869ZM258.794 224.674C258.833 224.695 258.872 224.718 258.911 224.739C258.874 224.719 258.832 224.694 258.794 224.674C258.792 224.674 258.796 224.674 258.794 224.674Z" fill="black"/>
</svg>
